<?xml version="1.0" encoding="UTF-8"?>
<svg width="371px" height="302px" viewBox="0 0 371 302" version="1.1" xmlns="http://www.w3.org/2000/svg" xmlns:xlink="http://www.w3.org/1999/xlink">
    <!-- Generator: Sketch 47.1 (45422) - http://www.bohemiancoding.com/sketch -->
    <title>Path 2</title>
    <desc>Created with Sketch.</desc>
    <defs></defs>
    <g id="Page-1" stroke="none" stroke-width="1" fill="none" fill-rule="evenodd" stroke-linecap="round">
        <g id="A4" transform="translate(-121.000000, -303.000000)" stroke="#979797" stroke-width="12">
            <path d="M176.904126,598.884379 L436.437798,560.696461 C445.399807,558.331837 455.735159,552.631607 467.443852,543.595769 C479.152546,534.559931 485.188726,527.625916 485.552394,522.793724 L485.552394,435.077866 C482.489219,421.436192 479.044155,411.391056 475.217204,404.942459 C471.390253,398.493861 461.930858,390.97055 446.839021,382.372525 L333.689262,315.033702 C327.097694,311.011234 318.793545,309 308.776816,309 C298.760088,309 288.644065,311.011234 278.428749,315.033702 L162.024825,382.372525 C150.745639,388.07757 142.508719,395.600882 137.314065,404.942459 C132.119411,414.284035 128.68139,424.329171 127,435.077866 L127,549.740737" id="Path-2"></path>
        </g>
    </g>
</svg>